<?xml version="1.0" encoding="UTF-8" standalone="no"?>
<svg
   viewBox="0 0 261.76 226.69"
   version="1.1"
   id="svg6"
   sodipodi:docname="logo.svg"
   inkscape:version="1.1.2 (0a00cf5339, 2022-02-04)"
   xmlns:inkscape="http://www.inkscape.org/namespaces/inkscape"
   xmlns:sodipodi="http://sodipodi.sourceforge.net/DTD/sodipodi-0.dtd"
   xmlns="http://www.w3.org/2000/svg"
   xmlns:svg="http://www.w3.org/2000/svg">
  <defs
     id="defs10" />
  <sodipodi:namedview
     id="namedview8"
     pagecolor="#ffffff"
     bordercolor="#666666"
     borderopacity="1.0"
     inkscape:pageshadow="2"
     inkscape:pageopacity="0.0"
     inkscape:pagecheckerboard="0"
     showgrid="false"
     inkscape:zoom="2.7231206"
     inkscape:cx="134.0374"
     inkscape:cy="106.86269"
     inkscape:window-width="1920"
     inkscape:window-height="1011"
     inkscape:window-x="0"
     inkscape:window-y="0"
     inkscape:window-maximized="1"
     inkscape:current-layer="svg6" />
  <path
     id="path926"
     style="fill:#3bf682;fill-rule:evenodd;stroke-width:84.0738;stroke-linejoin:round;stop-color:#000000"
     d="M 129.05664 3.046875 A 107.7317 107.7317 0 0 0 21.324219 110.77734 A 107.7317 107.7317 0 0 0 129.05664 218.50977 A 107.7317 107.7317 0 0 0 236.78711 110.77734 A 107.7317 107.7317 0 0 0 129.05664 3.046875 z M 129.05664 20.609375 A 90.168694 90.168694 0 0 1 219.22461 110.77734 A 90.168694 90.168694 0 0 1 129.05664 200.94727 A 90.168694 90.168694 0 0 1 38.886719 110.77734 A 90.168694 90.168694 0 0 1 129.05664 20.609375 z " />
  <path
     id="circle1090"
     style="fill:#3f5ef4;fill-rule:evenodd;stroke-width:53.7494;stroke-linejoin:round;stop-color:#000000"
     d="M 129.05664 41.904297 A 68.87429 68.87429 0 0 0 60.181641 110.77734 A 68.87429 68.87429 0 0 0 129.05664 179.65234 A 68.87429 68.87429 0 0 0 197.92969 110.77734 A 68.87429 68.87429 0 0 0 129.05664 41.904297 z M 129.05664 73.123047 A 37.653984 37.653984 0 0 1 166.71094 110.77734 A 37.653984 37.653984 0 0 1 129.05664 148.43164 A 37.653984 37.653984 0 0 1 91.402344 110.77734 A 37.653984 37.653984 0 0 1 129.05664 73.123047 z " />
</svg>
